<svg id="box" xmlns="http://www.w3.org/2000/svg" viewBox="0 0 480 480"><path d="M472 0H8C3.576 0 0 3.584 0 8v432c0 4.416 3.576 8 8 8h32v24c0 4.416 3.576 8 8 8h80c4.424 0 8-3.584 8-8v-24h192v24c0 4.416 3.576 8 8 8h80c4.424 0 8-3.584 8-8v-24h48c4.424 0 8-3.584 8-8V8c0-4.416-3.576-8-8-8zM120 464H56v-16h64v16zm288 0h-64v-16h64v16zm56-32H16V16h448v416z"/><path d="M416 208v-32h16c4.424 0 8-3.584 8-8V88c0-4.416-3.576-8-8-8h-16V40c0-4.416-3.576-8-8-8H40c-4.424 0-8 3.584-8 8v368c0 4.416 3.576 8 8 8h368c4.424 0 8-3.584 8-8v-40h16c4.424 0 8-3.584 8-8v-80c0-4.416-3.576-8-8-8h-16v-64zm-16 192H48V48h352v32h-32c-4.424 0-8 3.584-8 8v80c0 4.416 3.576 8 8 8h32v24h-24c-4.424 0-8 3.584-8 8v32c0 4.416 3.576 8 8 8h24v24h-32c-4.424 0-8 3.584-8 8v80c0 4.416 3.576 8 8 8h32v32zm0-184v16h-16v-16h16zm24 72v24h-24v16h24v24h-48v-64h48zm-16-128h-32V96h48v24h-24v16h24v24h-16z"/><path d="M248 104H80c-4.424 0-8 3.584-8 8v224c0 4.416 3.576 8 8 8h168c4.424 0 8-3.584 8-8V112c0-4.416-3.576-8-8-8zm-8 224H88V184h152v144zm0-160H88v-48h152v48z"/><path d="M112 208h24v16h-24zM152 208h24v16h-24zM192 208h24v16h-24zM112 248h24v16h-24zM152 248h24v16h-24zM192 248h24v16h-24zM112 288h24v16h-24zM152 288h24v16h-24zM192 288h24v16h-24z"/></svg>