<svg  id="icon" viewBox="-31 0 480 480.592" xmlns="http://www.w3.org/2000/svg"><path d="M209.813 442.008a170.516 170.516 0 00120.953-50.02c66.691-66.691 66.691-175.21 0-241.898-66.692-66.692-175.211-66.695-241.907 0-66.695 66.691-66.691 175.21 0 241.898a170.516 170.516 0 00120.954 50.02zM81.343 265.313H50.958a158.467 158.467 0 0142.234-102.274l21.54 21.469a6.023 6.023 0 008.484-.051 6.012 6.012 0 000-8.496l-21.54-21.547a158.464 158.464 0 01102.138-42.234v30.386c0 3.317 2.687 6 6 6s6-2.683 6-6V112.18a158.464 158.464 0 01102.136 42.234l-21.535 21.54a5.998 5.998 0 00.031 8.448 6 6 0 008.453.036l21.54-21.399a158.483 158.483 0 0142.23 102.274h-30.387c-3.312 0-6 2.687-6 6 0 3.316 2.688 6 6 6h30.387a157.76 157.76 0 01-42.234 102l-21.54-21.606a5.979 5.979 0 00-8.457-.027 5.984 5.984 0 00-.027 8.46l21.54 21.528a158.44 158.44 0 01-102.138 42.223v-30.387a6.001 6.001 0 00-12 0v30.387a158.46 158.46 0 01-102.136-42.23l21.535-21.54a6.006 6.006 0 00.004-8.488 6.003 6.003 0 00-8.488 0l-21.536 21.68a157.76 157.76 0 01-42.234-102h30.387c3.316 0 6-2.684 6-6 0-3.313-2.684-6-6-6zm0 0"/><path d="M155.898 333.215a6.04 6.04 0 002.399-.5l76.586-33.508a6.003 6.003 0 003.09-3.094l33.507-76.582a5.999 5.999 0 00-7.898-7.902l-76.586 33.508a6.003 6.003 0 00-3.09 3.093l-33.508 76.583a5.999 5.999 0 005.5 8.406zm74.61-49.965l-30.645-30.648 54.48-23.84zm-39.13-22.16l30.645 30.644-54.484 23.836zm0 0"/><path d="M209.813 480.594c110.835.101 202.574-86.145 209.308-196.778 6.73-110.632-73.875-207.367-183.91-220.703a36.66 36.66 0 008.621-40.133C238.246 9.094 224.782 0 209.816 0s-28.43 9.094-34.015 22.98a36.659 36.659 0 008.617 40.133C74.465 76.54-6.043 173.234.684 283.801 7.41 394.37 99.039 480.594 209.812 480.594zm0-468.559c13.625 0 24.667 11.047 24.667 24.668 0 13.625-11.046 24.668-24.667 24.668-13.625 0-24.668-11.047-24.668-24.668.015-13.617 11.05-24.652 24.667-24.668zM70.117 131.344C136.762 64.695 241.203 54.41 319.57 106.77c78.368 52.363 108.832 152.792 72.766 239.867-36.066 87.078-128.621 136.55-221.063 118.164-92.437-18.387-159.015-99.516-159.015-193.766a196.926 196.926 0 0157.86-139.691zm0 0"/></svg>