<svg aria-hidden="true" style="position: absolute; width: 0; height: 0; overflow: hidden;" version="1.1" xmlns="http://www.w3.org/2000/svg" xmlns:xlink="http://www.w3.org/1999/xlink">
<defs>
<symbol id="box" viewBox="0 0 32 32">
<title>box</title>
<path d="M31.467 0h-30.933c-0.295 0-0.533 0.239-0.533 0.533v28.8c0 0.294 0.238 0.533 0.533 0.533h2.133v1.6c0 0.294 0.238 0.533 0.533 0.533h5.333c0.295 0 0.533-0.239 0.533-0.533v-1.6h12.8v1.6c0 0.294 0.238 0.533 0.533 0.533h5.333c0.295 0 0.533-0.239 0.533-0.533v-1.6h3.2c0.295 0 0.533-0.239 0.533-0.533v-28.8c0-0.294-0.238-0.533-0.533-0.533zM8 30.933h-4.267v-1.067h4.267v1.067zM27.2 30.933h-4.267v-1.067h4.267v1.067zM30.933 28.8h-29.867v-27.733h29.867v27.733z"></path>
<path d="M27.733 13.867v-2.133h1.067c0.295 0 0.533-0.239 0.533-0.533v-5.333c0-0.294-0.238-0.533-0.533-0.533h-1.067v-2.667c0-0.294-0.238-0.533-0.533-0.533h-24.533c-0.295 0-0.533 0.239-0.533 0.533v24.533c0 0.294 0.238 0.533 0.533 0.533h24.533c0.295 0 0.533-0.239 0.533-0.533v-2.667h1.067c0.295 0 0.533-0.239 0.533-0.533v-5.333c0-0.294-0.238-0.533-0.533-0.533h-1.067v-4.267zM26.667 26.667h-23.467v-23.467h23.467v2.133h-2.133c-0.295 0-0.533 0.239-0.533 0.533v5.333c0 0.294 0.238 0.533 0.533 0.533h2.133v1.6h-1.6c-0.295 0-0.533 0.239-0.533 0.533v2.133c0 0.294 0.238 0.533 0.533 0.533h1.6v1.6h-2.133c-0.295 0-0.533 0.239-0.533 0.533v5.333c0 0.294 0.238 0.533 0.533 0.533h2.133v2.133zM26.667 14.4v1.067h-1.067v-1.067h1.067zM28.267 19.2v1.6h-1.6v1.067h1.6v1.6h-3.2v-4.267h3.2zM27.2 10.667h-2.133v-4.267h3.2v1.6h-1.6v1.067h1.6v1.6h-1.067z"></path>
<path d="M16.533 6.933h-11.2c-0.295 0-0.533 0.239-0.533 0.533v14.933c0 0.294 0.238 0.533 0.533 0.533h11.2c0.295 0 0.533-0.239 0.533-0.533v-14.933c0-0.294-0.238-0.533-0.533-0.533zM16 21.867h-10.133v-9.6h10.133v9.6zM16 11.2h-10.133v-3.2h10.133v3.2z"></path>
<path d="M7.467 13.867h1.6v1.067h-1.6zM10.133 13.867h1.6v1.067h-1.6zM12.8 13.867h1.6v1.067h-1.6zM7.467 16.533h1.6v1.067h-1.6zM10.133 16.533h1.6v1.067h-1.6zM12.8 16.533h1.6v1.067h-1.6zM7.467 19.2h1.6v1.067h-1.6zM10.133 19.2h1.6v1.067h-1.6zM12.8 19.2h1.6v1.067h-1.6z"></path>
</symbol>
<symbol id="cart" viewBox="0 0 32 32">
<title>cart</title>
<path d="M29.658 2.909h-23.84v0.209l-0.298-1.023c-0.359-1.234-1.508-2.095-2.793-2.095h-2c-0.402 0-0.727 0.325-0.727 0.727s0.325 0.727 0.727 0.727h2c0.643 0 1.217 0.43 1.396 1.048l4.527 15.521-2.32 2.899c-0.319 0.397-0.512 0.908-0.513 1.463v0c0 1.292 1.050 2.342 2.342 2.342h20.203c0 0 0 0 0 0 0.401 0 0.727-0.325 0.727-0.727 0-0 0-0 0-0v0c0-0 0-0 0-0 0-0.401-0.325-0.727-0.727-0.727-0 0-0 0-0 0h-20.203c-0.489 0-0.888-0.398-0.888-0.888 0-0.201 0.069-0.398 0.195-0.555l2.337-2.921h14.265c1.121 0 2.155-0.656 2.633-1.67l5.075-10.785c0.14-0.292 0.222-0.635 0.222-0.996v-0.206c0-1.292-1.050-2.342-2.342-2.342zM30.545 5.457c0 0.13-0.029 0.261-0.085 0.378l-5.075 10.784c-0.239 0.507-0.756 0.835-1.317 0.835h-14.070l-3.818-13.091h23.476c0.489 0 0.888 0.398 0.888 0.888v0.206zM8.727 26.182c-1.604 0-2.909 1.305-2.909 2.909s1.305 2.909 2.909 2.909 2.909-1.305 2.909-2.909-1.305-2.909-2.909-2.909zM8.727 30.545c-0.802 0-1.455-0.653-1.455-1.455s0.653-1.455 1.455-1.455c0.802 0 1.455 0.653 1.455 1.455s-0.653 1.455-1.455 1.455zM26.182 26.182c-1.604 0-2.909 1.305-2.909 2.909s1.305 2.909 2.909 2.909 2.909-1.305 2.909-2.909-1.305-2.909-2.909-2.909zM26.182 30.545c-0.802 0-1.455-0.653-1.455-1.455s0.653-1.455 1.455-1.455c0.802 0 1.455 0.653 1.455 1.455s-0.653 1.455-1.455 1.455z"></path>
</symbol>
<symbol id="compass" viewBox="0 0 32 32">
<title>compass</title>
<path d="M16.054 29.406c0.006 0 0.013 0 0.020 0 3.135 0 5.973-1.272 8.026-3.328l0-0c4.437-4.437 4.437-11.656 0-16.093s-11.656-4.437-16.094 0c-4.437 4.437-4.437 11.656 0 16.093 2.053 2.056 4.892 3.328 8.027 3.328 0.007 0 0.014 0 0.021-0h-0.001zM7.507 17.651h-2.021c0.095-2.639 1.146-5.016 2.816-6.811l-0.006 0.006 1.433 1.428c0.072 0.071 0.171 0.115 0.28 0.115 0.111 0 0.211-0.045 0.284-0.118v0c0.072-0.072 0.117-0.172 0.117-0.283s-0.045-0.21-0.117-0.283v0l-1.433-1.433c1.786-1.661 4.159-2.712 6.776-2.809l0.019-0.001v2.022c0 0.221 0.179 0.399 0.399 0.399s0.399-0.178 0.399-0.399v-2.022c2.636 0.098 5.009 1.148 6.801 2.816l-0.006-0.006-1.433 1.433c-0.071 0.072-0.115 0.171-0.115 0.28 0 0.11 0.045 0.21 0.117 0.282v0c0.072 0.072 0.172 0.117 0.282 0.117 0.109 0 0.208-0.044 0.28-0.115l-0 0 1.433-1.424c1.663 1.788 2.714 4.165 2.809 6.785l0.001 0.019h-2.022c-0.22 0-0.399 0.179-0.399 0.399s0.179 0.399 0.399 0.399h2.022c-0.095 2.634-1.147 5.005-2.815 6.792l0.006-0.006-1.433-1.437c-0.072-0.073-0.172-0.117-0.282-0.117s-0.209 0.044-0.28 0.116l0-0c-0.073 0.072-0.117 0.172-0.117 0.282s0.044 0.209 0.116 0.281l1.433 1.432c-1.786 1.661-4.159 2.712-6.776 2.808l-0.019 0.001v-2.022c-0.004-0.217-0.181-0.392-0.399-0.392s-0.395 0.175-0.399 0.392v2.022c-2.636-0.097-5.009-1.148-6.801-2.815l0.006 0.006 1.433-1.433c0.072-0.072 0.117-0.172 0.117-0.282s-0.045-0.21-0.117-0.282v0c-0.072-0.072-0.172-0.117-0.282-0.117s-0.21 0.045-0.282 0.117v0l-1.433 1.442c-1.663-1.781-2.714-4.152-2.809-6.767l-0.001-0.019h2.022c0.221 0 0.399-0.179 0.399-0.399s-0.179-0.399-0.399-0.399z"></path>
<path d="M12.467 22.168c0.058-0 0.113-0.012 0.162-0.034l-0.003 0.001 5.095-2.229c0.092-0.041 0.165-0.113 0.205-0.203l0.001-0.003 2.229-5.095c0.021-0.047 0.033-0.102 0.033-0.16 0-0.22-0.179-0.399-0.399-0.399-0.058 0-0.113 0.012-0.162 0.034l0.003-0.001-5.095 2.229c-0.092 0.041-0.165 0.113-0.205 0.203l-0.001 0.003-2.229 5.095c-0.021 0.047-0.034 0.102-0.034 0.16 0 0.22 0.179 0.399 0.399 0.399 0 0 0 0 0 0h-0zM17.431 18.844l-2.039-2.039 3.624-1.586zM14.828 17.37l2.039 2.039-3.625 1.586z"></path>
<path d="M16.054 31.973c7.374 0.007 13.477-5.731 13.925-13.091s-4.915-13.796-12.235-14.683c0.463-0.445 0.75-1.068 0.75-1.759 0-0.328-0.065-0.641-0.182-0.927l0.006 0.016c-0.372-0.924-1.267-1.529-2.263-1.529s-1.891 0.605-2.263 1.529c-0.112 0.27-0.176 0.583-0.176 0.911 0 0.691 0.287 1.315 0.749 1.758l0.001 0.001c-7.315 0.893-12.671 7.326-12.223 14.682s6.543 13.092 13.913 13.092zM16.054 0.801c0.906 0 1.641 0.735 1.641 1.641s-0.735 1.641-1.641 1.641c-0.906 0-1.641-0.735-1.641-1.641s0.735-1.64 1.641-1.641zM6.76 8.738c4.434-4.434 11.382-5.118 16.596-1.635s7.24 10.165 4.841 15.958c-2.399 5.793-8.557 9.084-14.707 7.861s-10.579-6.621-10.579-12.891c0-0.005 0-0.011 0-0.017 0-3.624 1.471-6.904 3.849-9.276l0-0z"></path>
</symbol>
<symbol id="dart" viewBox="0 0 32 32">
<title>dart</title>
<path d="M32 23.83l-6.72 5.759v-3.84h-1.131c-3.571 0-6.201-1.6-8.371-3.718 0.837-0.986 1.596-1.978 2.302-2.906 0.162-0.214 0.323-0.425 0.484-0.637 1.606 1.661 3.333 2.781 5.585 2.781h1.131v-3.2l6.719 5.761zM0 11.029h3.349c2.124 0 3.78 0.998 5.309 2.502 0.252-0.323 0.506-0.659 0.763-0.995 0.625-0.823 1.286-1.689 2.002-2.554-2.114-1.975-4.664-3.434-8.073-3.434h-3.349v4.481zM25.28 2.411v3.818h-1.131c-5.91 0-9.242 4.381-12.182 8.247-2.645 3.471-4.928 6.473-8.618 6.473h-3.349v4.48h3.349c5.911 0 9.243-4.378 12.183-8.243 2.644-3.476 4.928-6.477 8.617-6.477h1.131v3.224l6.72-5.761-6.72-5.76z"></path>
</symbol>
<symbol id="heart" viewBox="0 0 32 32">
<title>heart</title>
<path d="M23.667 1.333c-3.549 0-6.481 3.297-7.667 4.853-1.186-1.556-4.117-4.853-7.667-4.853-4.595 0-8.333 4.225-8.333 9.417 0 2.833 1.124 5.473 3.092 7.279 0.030 0.052 0.065 0.096 0.105 0.136l0 0 12.332 12.307c0.13 0.13 0.3 0.195 0.471 0.195s0.341-0.065 0.471-0.195l12.874-12.865c0.104-0.098 0.207-0.198 0.322-0.326 0.046-0.046 0.086-0.098 0.117-0.155l0.002-0.003c1.429-1.75 2.214-4.007 2.214-6.372 0-5.192-3.738-9.417-8.333-9.417zM28.676 16.372c-0.017 0.020-0.034 0.042-0.049 0.065l-0.001 0.002c-0.063 0.072-0.131 0.135-0.199 0.199l-12.428 12.419-11.708-11.684c-0.040-0.078-0.092-0.143-0.154-0.198l-0.001-0.001c-1.782-1.556-2.803-3.898-2.803-6.425 0-4.457 3.14-8.083 7-8.083 3.816 0 7.074 4.978 7.106 5.028 0.246 0.38 0.875 0.38 1.121 0 0.033-0.050 3.29-5.028 7.106-5.028 3.86 0 7 3.626 7 8.083 0 2.1-0.707 4.097-1.99 5.622z"></path>
</symbol>
<symbol id="hour" viewBox="0 0 32 32">
<title>hour</title>
<path d="M16 0c-8.843 0-16 7.156-16 16s7.156 16 16 16c8.843 0 16-7.156 16-16s-7.156-16-16-16zM16 29.867c-7.646 0-13.867-6.221-13.867-13.867s6.221-13.867 13.867-13.867 13.867 6.221 13.867 13.867-6.221 13.867-13.867 13.867z"></path>
<path d="M19.299 15.681h-3.487v-5.941c0-0.589-0.478-1.067-1.067-1.067s-1.067 0.478-1.067 1.067v7.008c0 0.589 0.478 1.067 1.067 1.067h4.553c0.589 0 1.067-0.478 1.067-1.067s-0.478-1.067-1.067-1.067z"></path>
</symbol>
<symbol id="mail" viewBox="0 0 32 32">
<title>mail</title>
<path d="M29.188 3.813h-26.375c-1.549 0-2.813 1.262-2.813 2.813v18.75c0 1.545 1.258 2.813 2.813 2.813h26.375c1.545 0 2.813-1.258 2.813-2.813v-18.75c0-1.545-1.258-2.813-2.813-2.813zM28.799 5.688l-12.739 12.74-12.85-12.74h25.589zM1.875 24.987v-17.982l9.030 8.953-9.030 9.030zM3.201 26.313l9.036-9.036 3.166 3.139c0.367 0.363 0.958 0.362 1.323-0.003l3.087-3.087 8.987 8.987h-25.598zM30.125 24.987l-8.987-8.987 8.987-8.987v17.973z"></path>
</symbol>
<symbol id="phone" viewBox="0 0 32 32">
<title>phone</title>
<path d="M31.177 23.602l-3.978-3.978c-1.097-1.097-2.881-1.097-3.978 0l-1.808 1.808c-0.831 0.831-2.183 0.831-3.013 0l-7.838-7.844c-0.833-0.833-0.833-2.181 0-3.014l1.808-1.808c1.092-1.092 1.107-2.871-0.001-3.979l-3.977-3.965c-1.097-1.097-2.881-1.097-3.975-0.003l-1.45 1.437c-3.955 3.955-3.955 10.39-0 14.345l12.418 12.425c3.964 3.964 10.381 3.965 14.345 0l1.447-1.447c1.097-1.097 1.097-2.881 0-3.978zM5.74 2.149c0.366-0.366 0.96-0.366 1.327 0.001l3.977 3.965c0.366 0.366 0.366 0.96 0 1.326l-0.663 0.663-5.301-5.301 0.66-0.654zM16.711 27.701l-12.418-12.425c-3.060-3.060-3.228-7.865-0.517-11.125l5.285 5.285c-1.389 1.574-1.331 3.973 0.174 5.478l7.838 7.844c1.503 1.503 3.902 1.565 5.479 0.174l5.285 5.285c-3.25 2.706-8.044 2.564-11.125-0.517zM29.851 26.254l-0.663 0.663-5.304-5.304 0.663-0.663c0.366-0.366 0.96-0.366 1.326 0l3.978 3.978c0.366 0.366 0.366 0.96 0 1.326z"></path>
</symbol>
<symbol id="sett" viewBox="0 0 32 32">
<title>sett</title>
<path d="M16 7.704c-4.575 0-8.296 3.721-8.296 8.296s3.721 8.296 8.296 8.296 8.296-3.721 8.296-8.296-3.721-8.296-8.296-8.296zM16 23.111c-3.921 0-7.111-3.19-7.111-7.111s3.19-7.111 7.111-7.111 7.111 3.19 7.111 7.111-3.19 7.111-7.111 7.111z"></path>
<path d="M30.353 12.444h-1.196c-0.336-1.229-0.793-2.304-1.374-3.298l0.035 0.064 0.845-0.845c0.298-0.297 0.482-0.707 0.482-1.161 0-0.002 0-0.003 0-0.005v0c0-0.44-0.171-0.854-0.482-1.166l-2.698-2.698c-0.622-0.622-1.707-0.623-2.331 0l-0.845 0.845c-0.93-0.546-2.004-1.003-3.138-1.316l-0.095-0.022v-1.196c-0.001-0.909-0.738-1.646-1.647-1.647h-3.816c-0.909 0.001-1.646 0.738-1.647 1.647v1.196c-1.229 0.336-2.304 0.793-3.298 1.374l0.064-0.035-0.845-0.845c-0.623-0.623-1.708-0.622-2.331 0l-2.698 2.698c-0.298 0.297-0.482 0.707-0.482 1.161 0 0.002 0 0.003 0 0.005v-0c0 0.44 0.171 0.853 0.482 1.165l0.845 0.845c-0.546 0.93-1.003 2.004-1.316 3.138l-0.022 0.095h-1.196c-0.909 0.001-1.646 0.738-1.647 1.647v3.816c0.001 0.91 0.738 1.647 1.647 1.648h1.196c0.336 1.229 0.793 2.304 1.374 3.298l-0.035-0.064-0.845 0.845c-0.298 0.297-0.482 0.707-0.482 1.161 0 0.002 0 0.003 0 0.005v-0c0 0.44 0.171 0.854 0.482 1.166l2.698 2.698c0.622 0.623 1.708 0.623 2.331 0l0.845-0.845c0.93 0.546 2.004 1.003 3.139 1.317l0.095 0.023v1.196c0.001 0.909 0.738 1.646 1.647 1.647h3.816c0.909-0.001 1.646-0.738 1.647-1.647v-1.196c1.229-0.336 2.304-0.793 3.298-1.374l-0.064 0.035 0.845 0.845c0.623 0.623 1.708 0.622 2.331 0l2.698-2.698c0.298-0.297 0.482-0.707 0.482-1.161 0-0.002 0-0.003 0-0.005v0c0-0.44-0.171-0.853-0.482-1.165l-0.845-0.845c0.546-0.93 1.003-2.004 1.317-3.139l0.023-0.095h1.196c0.909-0.001 1.646-0.738 1.647-1.647v-3.816c-0.002-0.909-0.739-1.646-1.648-1.647h-0zM30.815 17.908c0 0.255-0.207 0.462-0.462 0.462h-2.129l-0.107 0.458c-0.335 1.416-0.869 2.665-1.579 3.791l0.030-0.051-0.249 0.399 1.505 1.505c0.084 0.084 0.136 0.199 0.136 0.327s-0.052 0.243-0.136 0.327v0l-2.698 2.698c-0.084 0.084-0.199 0.136-0.327 0.136s-0.243-0.052-0.327-0.136v0l-1.505-1.505-0.399 0.249c-1.075 0.68-2.323 1.214-3.656 1.532l-0.084 0.017-0.458 0.107v2.129c0 0.255-0.207 0.462-0.462 0.462h-3.816c-0.255 0-0.462-0.207-0.462-0.462v-2.129l-0.458-0.107c-1.416-0.335-2.665-0.869-3.791-1.579l0.051 0.030-0.399-0.249-1.505 1.505c-0.084 0.084-0.199 0.136-0.327 0.136s-0.243-0.052-0.327-0.136v0l-2.698-2.698c-0.084-0.084-0.136-0.199-0.136-0.327s0.052-0.243 0.136-0.327v0l1.505-1.505-0.249-0.399c-0.68-1.075-1.214-2.323-1.532-3.656l-0.017-0.084-0.107-0.458h-2.129c-0.255 0-0.462-0.207-0.462-0.462v-3.816c0-0.255 0.207-0.462 0.462-0.462h2.129l0.107-0.458c0.335-1.416 0.868-2.665 1.579-3.791l-0.030 0.051 0.249-0.399-1.505-1.505c-0.084-0.084-0.136-0.199-0.136-0.327s0.052-0.243 0.136-0.327v0l2.698-2.698c0.084-0.084 0.199-0.136 0.327-0.136s0.243 0.052 0.327 0.136v0l1.505 1.505 0.399-0.249c1.075-0.68 2.324-1.214 3.656-1.532l0.084-0.017 0.458-0.107v-2.129c0-0.255 0.207-0.462 0.462-0.462h3.816c0.255 0 0.463 0.207 0.463 0.462v2.129l0.458 0.107c1.416 0.335 2.665 0.869 3.791 1.579l-0.051-0.030 0.399 0.249 1.505-1.505c0.084-0.084 0.199-0.136 0.327-0.136s0.243 0.052 0.327 0.136v0l2.698 2.698c0.084 0.084 0.136 0.199 0.136 0.327s-0.052 0.243-0.136 0.327v0l-1.505 1.505 0.249 0.399c0.681 1.075 1.214 2.323 1.532 3.656l0.017 0.084 0.107 0.458h2.129c0.255 0 0.462 0.207 0.462 0.462v3.816z"></path>
<path d="M16 10.074c-3.268 0-5.926 2.658-5.926 5.926s2.658 5.926 5.926 5.926 5.926-2.658 5.926-5.926-2.658-5.926-5.926-5.926zM16 20.741c-2.614 0-4.741-2.127-4.741-4.741s2.127-4.741 4.741-4.741 4.741 2.127 4.741 4.741-2.127 4.741-4.741 4.741z"></path>
</symbol>
<symbol id="submit" viewBox="0 0 32 32">
<title>submit</title>
<path d="M31.455 17.577l-4.409-4.409c-0.305-0.304-0.621-0.459-0.94-0.459-0.413 0-0.686 0.234-0.837 0.557v-4.027c0-1.281-1.042-2.324-2.324-2.324h-20.621c-1.281 0-2.324 1.042-2.324 2.324v12.889c0 1.281 1.042 2.324 2.324 2.324h20.621c0.998 0 1.85-0.632 2.179-1.516v0.893c0 0.625 0.304 1.255 0.982 1.255 0.319 0 0.635-0.154 0.94-0.459l4.409-4.409c0.352-0.352 0.545-0.82 0.545-1.32s-0.193-0.968-0.545-1.32zM1.205 9.24c0-0.617 0.502-1.119 1.119-1.119h20.621c0.617 0 1.119 0.502 1.119 1.119v0.159l-11.43 7.312-11.43-7.312v-0.159zM24.064 10.829v4.474h-4.865c-0.737 0-1.375 0.429-1.678 1.051l-1.047-0.67 7.59-4.855zM1.205 10.829l7.59 4.855-7.59 4.855v-9.711zM22.945 23.248h-20.621c-0.617 0-1.119-0.502-1.119-1.119v-0.159l8.708-5.57 2.398 1.534c0.092 0.060 0.204 0.095 0.325 0.095s0.233-0.035 0.327-0.096l-0.002 0.001 2.398-1.534 1.976 1.264v2.961c0 1.029 0.837 1.866 1.866 1.866h4.804c-0.151 0.44-0.568 0.758-1.058 0.758zM30.603 19.365l-4.275 4.275v-1.751c0-0.333-0.27-0.602-0.602-0.602v0h-6.527c-0.365 0-0.662-0.297-0.662-0.662v-3.455c0-0.365 0.297-0.662 0.662-0.662h6.527c0.333 0 0.602-0.27 0.602-0.602v0-1.751l4.275 4.275c0.124 0.124 0.192 0.29 0.192 0.468s-0.068 0.344-0.192 0.468z"></path>
</symbol>
<symbol id="worldwide" viewBox="0 0 32 32">
<title>worldwide</title>
<path d="M28.552 6.096c-0.001-0.001-0.001-0.003-0.001-0.003-0.004-0.007-0.011-0.011-0.015-0.018-2.934-3.697-7.461-6.074-12.536-6.074-5.061 0-9.577 2.365-12.511 6.044-0.013 0.017-0.031 0.029-0.041 0.047-0.001 0.003-0.001 0.006-0.003 0.008-2.154 2.726-3.445 6.165-3.445 9.901 0 3.738 1.292 7.178 3.448 9.905 0.001 0.001 0 0.001 0.001 0.002 0.003 0.006 0.008 0.008 0.011 0.013 2.934 3.7 7.462 6.080 12.54 6.080 5.009 0 9.485-2.315 12.421-5.929 0.050-0.047 0.095-0.1 0.131-0.163 0.001-0.002 0.001-0.005 0.002-0.007 2.154-2.726 3.446-6.165 3.446-9.901 0-3.738-1.292-7.178-3.448-9.904zM27.727 7.325c1.672 2.254 2.705 4.998 2.847 7.979h-6.929c-0.045-2.262-0.302-4.39-0.735-6.298 1.808-0.405 3.437-0.976 4.818-1.681zM26.824 6.224c-1.233 0.597-2.671 1.084-4.26 1.437-0.702-2.447-1.709-4.448-2.92-5.791 2.81 0.726 5.29 2.263 7.181 4.354zM9.754 15.304c0.046-2.152 0.298-4.2 0.717-6.030 1.746 0.3 3.61 0.465 5.528 0.465s3.782-0.165 5.528-0.465c0.419 1.83 0.671 3.878 0.717 6.031h-12.491zM22.245 16.696c-0.046 2.152-0.298 4.2-0.717 6.030-1.745-0.3-3.609-0.465-5.528-0.465s-3.782 0.165-5.528 0.465c-0.419-1.83-0.671-3.878-0.717-6.030h12.49zM16 1.391c2.126 0 4.045 2.626 5.182 6.534-1.633 0.273-3.38 0.422-5.182 0.422s-3.549-0.149-5.182-0.422c1.137-3.908 3.056-6.534 5.182-6.534zM12.355 1.87c-1.21 1.343-2.218 3.343-2.92 5.791-1.59-0.353-3.027-0.84-4.26-1.437 1.89-2.090 4.37-3.629 7.18-4.354zM4.273 7.326c1.382 0.705 3.009 1.277 4.818 1.681-0.433 1.907-0.691 4.035-0.735 6.298h-6.929c0.141-2.982 1.174-5.726 2.846-7.979zM4.273 24.674c-1.672-2.254-2.705-4.998-2.846-7.978h6.929c0.045 2.262 0.302 4.39 0.735 6.298-1.808 0.405-3.437 0.976-4.818 1.681zM5.176 25.776c1.233-0.597 2.671-1.084 4.26-1.437 0.702 2.447 1.709 4.448 2.92 5.791-2.81-0.726-5.29-2.264-7.18-4.354zM16 30.609c-2.126 0-4.045-2.626-5.182-6.534 1.633-0.273 3.38-0.422 5.182-0.422s3.549 0.149 5.182 0.422c-1.137 3.908-3.056 6.534-5.182 6.534zM19.644 30.13c1.21-1.343 2.218-3.343 2.92-5.791 1.59 0.353 3.027 0.84 4.26 1.437-1.89 2.090-4.37 3.629-7.181 4.354zM27.727 24.674c-1.382-0.705-3.010-1.277-4.818-1.681 0.433-1.907 0.691-4.035 0.735-6.298h6.929c-0.141 2.981-1.174 5.725-2.846 7.978z"></path>
</symbol>
</defs>
</svg>
