<svg id="safe" xmlns="http://www.w3.org/2000/svg"><circle cx="196" cy="257" r="15"/><path d="M497 0H15C6.716 0 0 6.716 0 15v482c0 8.284 6.716 15 15 15h482c8.284 0 15-6.716 15-15V15c0-8.284-6.716-15-15-15zM76 362H30v-30h46c8.284 0 15-6.716 15-15V197c0-8.284-6.716-15-15-15H30v-30h46c8.284 0 15-6.716 15-15V92h330v330H91v-45c0-8.284-6.716-15-15-15zM30 212h31v90H30zm452 270H30v-90h31v45c0 8.284 6.716 15 15 15h360c8.284 0 15-6.716 15-15V77c0-8.284-6.716-15-15-15H76c-8.284 0-15 6.716-15 15v45H30V30h452z"/><path d="M196 332h180c8.284 0 15-6.716 15-15V197c0-8.284-6.716-15-15-15H196c-41.355 0-75 33.645-75 75s33.645 75 75 75zm165-30H255.959C265.397 289.456 271 273.871 271 257s-5.603-32.456-15.041-45H361zm-165-90c24.813 0 45 20.187 45 45s-20.187 45-45 45-45-20.187-45-45 20.187-45 45-45z"/></svg>