<svg xmlns="http://www.w3.org/2000/svg" viewBox="0 0 398.469 398.469"><path d="M391.683 218.872l-54.903-54.903c-3.792-3.791-7.729-5.714-11.702-5.714-5.139 0-8.542 2.911-10.426 6.937v-50.139c0-15.956-12.981-28.938-28.938-28.938H28.938C12.981 86.115 0 99.096 0 115.052v160.5c0 15.956 12.981 28.938 28.938 28.938h256.775c12.422 0 23.039-7.869 27.134-18.883v11.119c0 7.778 3.782 15.627 12.23 15.628 3.973 0 7.91-1.923 11.702-5.714l54.903-54.903c4.377-4.377 6.787-10.213 6.787-16.433 0-6.22-2.409-12.056-6.786-16.432zM15 115.052c0-7.686 6.252-13.938 13.938-13.938h256.775c7.686 0 13.938 6.252 13.938 13.938v1.982l-142.326 91.049L15 117.034v-1.982zm284.651 19.789v55.716h-60.58c-9.174 0-17.122 5.345-20.897 13.083l-13.033-8.338 94.51-60.461zm-284.651 0l94.511 60.461L15 255.763V134.841zM285.713 289.49H28.938c-7.686 0-13.938-6.252-13.938-13.938v-1.983l108.428-69.364 29.855 19.1a7.496 7.496 0 008.084 0l29.855-19.099 24.61 15.742v36.866c0 12.814 10.425 23.239 23.239 23.239h59.82c-1.877 5.481-7.069 9.437-13.178 9.437zm95.363-48.36l-53.229 53.229v-21.806a7.5 7.5 0 00-7.5-7.5h-81.276c-4.543 0-8.239-3.696-8.239-8.239v-43.02c0-4.543 3.696-8.238 8.239-8.238h81.276a7.5 7.5 0 007.5-7.5V176.25l53.229 53.229c1.543 1.543 2.394 3.612 2.394 5.825 0 2.212-.85 4.282-2.394 5.826z"/></svg>