<svg id="icon" xmlns="http://www.w3.org/2000/svg" viewBox="0 0 368 368"><path d="M328.352 70.104c-.008-.016-.008-.032-.016-.04-.048-.08-.128-.128-.176-.208C294.424 27.344 242.36 0 184 0 125.8 0 73.864 27.192 40.12 69.504c-.144.2-.352.328-.472.544-.016.032-.016.064-.032.096C14.84 101.496 0 141.04 0 184c0 42.984 14.856 82.544 39.656 113.904.008.008 0 .016.008.024.032.064.096.096.128.152C73.528 340.632 125.608 368 184 368c57.6 0 109.08-26.624 142.84-68.184.576-.544 1.096-1.152 1.512-1.872.016-.024.016-.056.024-.08C353.152 266.512 368 226.968 368 184c0-42.984-14.856-82.544-39.648-113.896zm-9.496 14.136c19.224 25.92 31.112 57.48 32.736 91.76h-79.688c-.512-26.016-3.472-50.488-8.456-72.424 20.792-4.656 39.52-11.224 55.408-19.336zM308.48 71.576c-14.184 6.864-30.712 12.464-48.992 16.52-8.072-28.144-19.656-51.152-33.584-66.592 32.32 8.344 60.832 26.024 82.576 50.072zM112.176 176c.528-24.752 3.424-48.304 8.248-69.344C140.504 110.104 161.936 112 184 112s43.496-1.896 63.576-5.352c4.824 21.04 7.712 44.592 8.248 69.352H112.176zm143.64 16c-.528 24.752-3.424 48.304-8.248 69.344C227.496 257.896 206.064 256 184 256s-43.496 1.896-63.576 5.344c-4.824-21.04-7.712-44.592-8.248-69.344h143.64zM184 16c24.448 0 46.52 30.2 59.592 75.144C224.808 94.288 204.72 96 184 96s-40.808-1.712-59.592-4.856C137.488 46.2 159.552 16 184 16zm-41.912 5.504c-13.92 15.44-25.504 38.448-33.576 66.592-18.28-4.056-34.808-9.656-48.992-16.52 21.736-24.04 50.256-41.728 82.568-50.072zM49.136 84.248c15.888 8.104 34.608 14.68 55.408 19.336-4.984 21.936-7.944 46.408-8.448 72.424H16.408c1.624-34.288 13.504-65.848 32.728-91.76zm0 199.504C29.912 257.832 18.032 226.28 16.408 192h79.688c.512 26.016 3.472 50.488 8.448 72.424-20.792 4.656-39.52 11.224-55.408 19.328zm10.384 12.672c14.184-6.864 30.712-12.464 48.992-16.52 8.072 28.144 19.656 51.152 33.576 66.592-32.312-8.344-60.832-26.032-82.568-50.072zM184 352c-24.448 0-46.512-30.2-59.592-75.144C143.192 273.712 163.28 272 184 272c20.728 0 40.808 1.712 59.592 4.856C230.52 321.8 208.448 352 184 352zm41.904-5.504c13.92-15.44 25.504-38.448 33.584-66.592 18.28 4.056 34.808 9.656 48.992 16.52-21.736 24.04-50.256 41.728-82.576 50.072zm92.96-62.744c-15.888-8.104-34.616-14.68-55.408-19.328 4.984-21.936 7.944-46.408 8.448-72.424h79.688c-1.624 34.28-13.504 65.84-32.728 91.752z"/></svg>